<?xml version="1.0" encoding="UTF-8"?>
<svg width="63px" height="73px" viewBox="0 0 63 73" version="1.1" xmlns="http://www.w3.org/2000/svg" xmlns:xlink="http://www.w3.org/1999/xlink">
    <!-- Generator: Sketch 51.2 (57519) - http://www.bohemiancoding.com/sketch -->
    <g stroke="none" stroke-width="1" fill="none" fill-rule="nonzero" transform="translate(3.000000, 4.000000)">
        <polygon fill="#5090CA" points="14.9 24.87 28.3 17.115 28.3 0.72 0.66 16.695"></polygon>
        <path d="M28.348,64.484 L28.325,48.1 L41.749,40.356 L55.944,32.156 L55.944,48.54 L28.348,64.484 Z M28.29,17.114 L41.714,24.858 L55.9,16.66 L28.3,0.72 L28.29,17.114 Z" fill="#3374AE"></path>
        <polygon fill="#5090CA" points="28.325 48.1 14.9 40.357 0.716 48.557 28.358 64.475"></polygon>
        <polygon fill="#3374AE" points="14.9 40.357 14.9 24.87 0.66 16.695 0.705 48.565"></polygon>
        <polygon fill="#808184" points="28.3 17.114 41.724 24.858 41.724 40.358 28.3 32.613"></polygon>
        <polyline fill="#58595B" points="28.3 17.114 28.3 32.614 14.9 40.358 14.9 24.87 28.3 17.115"></polyline>
        <path d="M28.3507487,-1.55369206 L57.7039875,15.4719739 L57.7039875,49.8528863 L28.3507499,66.693086 L-0.993958196,49.8527128 L-0.993958196,15.4721479 L28.3507487,-1.55369206 Z" class="svg-stroke" stroke-width="4"></path>
    </g>
</svg>