<?xml version="1.0" encoding="UTF-8" standalone="no"?>
<!DOCTYPE svg PUBLIC "-//W3C//DTD SVG 1.1//EN" "http://www.w3.org/Graphics/SVG/1.1/DTD/svg11.dtd">


<!-- Page 1 -->
<svg x="0" y="0" width="710" height="106" viewBox="0 0 710 106" version="1.1" xmlns="http://www.w3.org/2000/svg"
     xmlns:xlink="http://www.w3.org/1999/xlink" style="display: block;margin-left: auto;margin-right: auto;">
<defs>

<style type="text/css"><![CDATA[

.g2_1{
fill: #4796e4;
}


]]></style>

</defs>
<path d="M47.7,30.6l-12.1,31l24.2,0ZM29.8,77.3l-9,21.4c-1.3,3,-4.1,5.6,-8,5.6c-4.5,0,-8.4,-3.9,-8.4,-8.4C4.4,95,4.6,93.8,5,92.8L39.8,7.9C40.7,5.8,43.1,2.6,47.7,2.6c4.5,0,6.9,3.2,7.8,5.3L90.3,92.8c0.4,1,0.6,2.2,0.6,3.1c0,4.5,-3.8,8.4,-8.4,8.4c-3.9,0,-6.7,-2.6,-8,-5.6l-9,-21.4Z" class="g2_1" />
<path d="M157.3,66.8l-22.7,33.6c-1.8,2.5,-4.2,3.9,-7.1,3.9c-4.7,0,-8.6,-3.9,-8.6,-8.6c0,-1.9,0.6,-3.5,1.5,-4.7L148,52.3L122.3,16.2c-1,-1.5,-1.6,-3.1,-1.6,-5.1c0,-4.7,3.8,-8.5,8.5,-8.5c3,0,5.4,1.2,7,3.5l21.1,31.5L178.4,6.1c1.6,-2.3,4,-3.5,6.9,-3.5c4.7,0,8.6,3.8,8.6,8.5c0,2,-0.6,3.6,-1.6,5.1L166.6,52.3L194.2,91c0.9,1.2,1.4,2.8,1.4,4.7c0,4.7,-3.8,8.6,-8.5,8.6c-3,0,-5.3,-1.4,-7.1,-3.9Z" class="g2_1" />
<path d="M242.1,53.5c0,24.3,9.6,36.3,29.1,36.3c19.5,0,29.1,-12,29.1,-36.3C300.3,29,290.7,17.1,271.2,17.1c-19.5,0,-29.1,11.9,-29.1,36.4m-17.7,0c0,-35,17,-51.8,46.8,-51.8C301,1.7,318,18.5,318,53.5c0,34.5,-17,51.6,-46.8,51.6C241.4,105.1,224.4,88,224.4,53.5Z" class="g2_1" />
<path d="M430.4,11l0,84.9c0,4.5,-3.8,8.4,-8.4,8.4c-2.8,0,-5.5,-1.5,-6.9,-3.7L371.5,37.7l0,58.2c0,4.5,-3.8,8.4,-8.4,8.4c-4.6,0,-8.4,-3.9,-8.4,-8.4l0,-84.9c0,-4.6,3.8,-8.4,8.4,-8.4c3,0,5.3,1.3,6.8,3.5l43.7,63.3l0,-58.4c0,-4.6,3.8,-8.4,8.4,-8.4c4.6,0,8.4,3.8,8.4,8.4Z" class="g2_1" />
<path d="M488.1,95.7c0,4.7,-3.8,8.6,-8.6,8.6c-4.7,0,-8.5,-3.9,-8.5,-8.6l0,-84.6c0,-4.7,3.8,-8.5,8.5,-8.5c4.8,0,8.6,3.8,8.6,8.5Z" class="g2_1" />
<path d="M529.4,70.6l0,-59.5c0,-4.7,3.8,-8.5,8.6,-8.5c4.7,0,8.5,3.8,8.5,8.5l0,59.5c0,9,3.4,19.5,20.1,19.5c16.7,0,20.1,-10.5,20.1,-19.5l0,-59.5c0,-4.7,3.8,-8.5,8.5,-8.5c4.7,0,8.6,3.8,8.6,8.5l0,59.5c0,16.8,-7.4,34.5,-37.2,34.5c-29.8,0,-37.2,-17.7,-37.2,-34.5Z" class="g2_1" />
<path d="M672.4,17c-12.3,0,-16.8,5.8,-16.8,11.7c0,19.3,53.8,10.3,53.8,47.2c0,18,-12.7,29.2,-37,29.2c-17.6,0,-31.6,-8.7,-37.3,-18C634.3,86,633.9,84.5,633.9,83c0,-4.4,3.5,-8,7.8,-8c3.2,0,5,1.8,6.5,3.3c6.2,6.2,14,11.2,24.2,11.2c13.4,0,19.9,-4.4,19.9,-13.6c0,-21.5,-53.8,-11.6,-53.8,-47.2c0,-14.6,10.4,-27,33.9,-27c14.7,0,27.6,5.5,33.5,13.9c0.9,1.3,1.5,2.9,1.5,4.7c0,4.3,-3.6,7.8,-8,7.8c-2.1,0,-4.1,-1.2,-6.3,-3.2C688.5,20.5,680.8,17,672.4,17Z" class="g2_1" />

</svg>
