<svg width="100px" height="100px" viewBox="-4 -4 100 100" version="1.1" xmlns="http://www.w3.org/2000/svg" xmlns:xlink="http://www.w3.org/1999/xlink">
    <!-- Generator: Sketch 48.2 (47327) - http://www.bohemiancoding.com/sketch -->
    <g class="svg-stroke" stroke-width="4" fill="none" fill-rule="evenodd">
        <path d="M65.5,5 C58.5,1.66666667 51.6666667,0 45,0 C38.3333333,0 31.5,1.66666667 24.5,5"></path>
        <path d="M65.5,90 C58.5,86.6666667 51.6666667,85 45,85 C38.3333333,85 31.5,86.6666667 24.5,90" transform="translate(45.000000, 87.500000) scale(1, -1) translate(-45.000000, -87.500000) "></path>
        <path d="M78,14.5 C80.7907207,17.2511245 83.2907207,20.9177911 85.5,25.5 C87.7092793,30.0822089 89.0426126,34.2488755 89.5,38"></path>
        <path d="M0.5,52 C3.62405405,54.7511245 6.29072072,58.4177911 8.5,63 C10.7092793,67.5822089 12.2092793,72.0822089 13,76.5" transform="translate(6.750000, 64.250000) scale(-1, -1) translate(-6.750000, -64.250000) "></path>
        <path d="M0.5,15 C2.95738739,17.4177911 5.29072072,20.9177911 7.5,25.5 C9.70927928,30.0822089 11.0426126,34.2488755 11.5,38" transform="translate(6.000000, 26.500000) scale(-1, 1) translate(-6.000000, -26.500000) "></path>
        <path d="M77,52 C80.1240541,54.7511245 82.7907207,58.4177911 85,63 C87.2092793,67.5822089 88.7092793,72.0822089 89.5,76.5" transform="translate(83.250000, 64.250000) scale(1, -1) translate(-83.250000, -64.250000) "></path>
    </g>
</svg>