<?xml version="1.0" encoding="UTF-8"?>
<svg width="86px" height="154px" viewBox="0 0 86 154" version="1.1" xmlns="http://www.w3.org/2000/svg" xmlns:xlink="http://www.w3.org/1999/xlink">
    <!-- Generator: Sketch 51.2 (57519) - http://www.bohemiancoding.com/sketch -->
    <g class="svg-fill svg-stroke" transform="translate(1.000000, 1.000000)" stroke-width="1" fill-rule="nonzero">
        <path d="M54,32 C54,22 48,6 38,6 C28,6 19,23 19,32 C19,41 28,90 28,102 C28,139 25,143 19,149 C13,155 2.14703255e-13,153 0,142 C-2.66037192e-13,131 6,133 6,139 C6,146 9,146 12,146 C24.1029946,146 23.0947487,111.077935 23,102 C22.833004,86 14,49.7202294 14,32 C14,19 25,3.97017497e-15 38,0 C51,0 60,13.789374 60,28 C60,36 54,36 54,32 Z"></path>
        <path d="M6,76.1620186 C34.75,76.1620186 24.9657513,76.1620186 36,76.1620186 C44.0701578,76.1620186 44.0701578,84 36,84 C25.5845905,84 16.341062,84 6,84 C-0.582058478,84 -0.582058478,76.1620186 6,76.1620186 Z"></path>
        <path d="M52.7049649,120.344011 C81.4549649,120.344011 71.6707163,120.344011 82.7049649,120.344011 C90.7751228,120.344011 90.7751228,128.181993 82.7049649,128.181993 C72.2895554,128.181993 63.0460269,128.181993 52.7049649,128.181993 C46.1229065,128.181993 46.1229065,120.344011 52.7049649,120.344011 Z" transform="translate(68.263002, 124.263002) rotate(135.000000) translate(-68.263002, -124.263002) "></path>
        <path d="M52.7049649,120.344011 C81.4549649,120.344011 71.6707163,120.344011 82.7049649,120.344011 C90.7751228,120.344011 90.7751228,128.181993 82.7049649,128.181993 C72.2895554,128.181993 63.0460269,128.181993 52.7049649,128.181993 C46.1229065,128.181993 46.1229065,120.344011 52.7049649,120.344011 Z" transform="translate(68.263002, 124.263002) rotate(45.000000) translate(-68.263002, -124.263002) "></path>
    </g>
</svg>