<svg xmlns="http://www.w3.org/2000/svg" viewBox="0 0 339.18 506.1">
	<g fill="none">
		<path class="svg-stroke" stroke-width="20" stroke-miterlimit="10" d="M41,10H194.18a1,1,0,0,1,1,1V133.42a3.44,3.44,0,0,1-3.44,3.44H43.44A3.44,3.44,0,0,1,40,133.42V11A1,1,0,0,1,41,10Z"/>
		<path class="svg-stroke" stroke-width="20" stroke-miterlimit="10" d="M11,138H222.7a1,1,0,0,1,1,1V482.1a14,14,0,0,1-14,14H24a14,14,0,0,1-14-14V139a1,1,0,0,1,1-1Z"/>
		<circle class="svg-stroke" stroke-width="8" stroke-linecap="round" stroke-miterlimit="10" cx="162.92" cy="412.9" r="28.74"/>
		<path class="svg-stroke" stroke-width="16" stroke-linecap="round" stroke-miterlimit="10" d="M292,338.7a84.16,84.16,0,0,1-4.66,145.06"/>
		<path class="svg-stroke" stroke-width="16" stroke-linecap="round" stroke-miterlimit="10" d="M271.79,364.88a55.07,55.07,0,0,1-3,94.91"/>
		<path class="svg-stroke" stroke-width="16" stroke-linecap="round" stroke-miterlimit="10" d="M255.29,394A22.44,22.44,0,0,1,254,432.73"/>
		<rect class="svg-stroke" stroke-width="8" stroke-miterlimit="10" x="74.18" y="41" width="32" height="68" rx="1" ry="1"/>
		<rect class="svg-stroke" stroke-width="8" stroke-miterlimit="10" x="132.18" y="42" width="32" height="68" rx="1" ry="1"/>
	</g>
</svg>