<svg viewBox="0 0 17 16" version="1.1" xmlns="http://www.w3.org/2000/svg" xmlns:xlink="http://www.w3.org/1999/xlink">
    <g stroke="none" stroke-width="1" fill="none" fill-rule="evenodd" opacity="0.591881793" transform="translate(-1.000000, -2.000000)">
        <rect x="0" y="0" width="20" height="20"></rect>
        <path d="M16.084,3.604 C14.655,2.175 13.583,2.39 13.583,2.39 L8.581,7.391 L2.864,13.108 L1.864,17.824 L6.579,16.824 L12.296,11.107 L17.298,6.106 C17.299,6.105 17.513,5.033 16.084,3.604 L16.084,3.604 Z M6.299,16.256 L4.692,16.603 C4.536,16.312 4.35,16.022 4.008,15.68 C3.666,15.338 3.376,15.152 3.086,14.995 L3.432,13.389 L3.897,12.924 C3.897,12.924 4.772,12.942 5.759,13.929 C6.746,14.916 6.764,15.792 6.764,15.792 L6.299,16.256 L6.299,16.256 Z" class="svg-fill"></path>
    </g>
</svg>