<svg xmlns="http://www.w3.org/2000/svg" width="152.168" height="147.319" viewBox="0 0 152.168 147.319">
    <defs>
        <style>
            .cls-1{opacity:.304}.cls-2,.cls-3{fill:none;stroke:#ff7e46;stroke-width:4px;stroke-linecap:round;stroke-linejoin:round;fill-rule:evenodd}.cls-3{fill:#ff7e46;stroke:#fff;stroke-width:.5px}
        </style>
    </defs>
    <g id="Password-Token" class="cls-1" transform="translate(1.942 17.316)">
        <g id="Contract-Expiry" transform="translate(-895 -511)">
            <g id="Group" transform="translate(897 496.5)">
                <g id="icon" transform="translate(7 18.5)">
                    <path id="lineart" d="M118.712 2.946a71.54 71.54 0 0 1 0 100.286 69.417 69.417 0 0 1-99.042 0C-7.681 75.537-4.965 28.277 22.386.582" class="cls-2"/>
                </g>
                <g id="icon-2" data-name="icon" transform="rotate(-48 20.969 9.264)">
                    <path id="lineart-2" d="M0 0l23.508 23.476m0 0L0 46.952" class="cls-2" data-name="lineart"/>
                </g>
                <g id="icon-3" data-name="icon" transform="translate(51 35.5)">
                    <path id="lineart-3" d="M43.083 68H3.917A3.906 3.906 0 0 1 0 64.108V32.97a3.906 3.906 0 0 1 3.917-3.892h39.166A3.906 3.906 0 0 1 47 32.97v31.138A3.906 3.906 0 0 1 43.083 68z" class="cls-3" data-name="lineart"/>
                    <path id="lineart-4" d="M23.841 0A15.619 15.619 0 0 0 8.174 15.569v15.569h31.333V15.569A15.619 15.619 0 0 0 23.841 0z" class="cls-2" data-name="lineart"/>
                </g>
            </g>
        </g>
    </g>
</svg>
