<?xml version="1.0" encoding="UTF-8"?>
<svg width="40px" height="40px" viewBox="0 0 40 40" version="1.1" xmlns="http://www.w3.org/2000/svg" xmlns:xlink="http://www.w3.org/1999/xlink">
    <!-- Generator: Sketch 48.2 (47327) - http://www.bohemiancoding.com/sketch -->
    <title>Views</title>
    <desc>Created with Sketch.</desc>
    <defs></defs>
    <g id="Page-1" stroke="none" stroke-width="1" fill="none" fill-rule="evenodd">
        <rect id="Rectangle" stroke="#979797" x="-992.5" y="-4.5" width="1041" height="534"></rect>
        <rect id="Rectangle-2" stroke="#979797" x="-992.5" y="-4.5" width="1041" height="61"></rect>
        <path d="M38,11.5 L15,35 L1,39 L4,25.5 L27,1.5 C28,3.83333333 29.3333333,5.83333333 31,7.5 C32.6666667,9.16666667 35,10.5 38,11.5 Z" id="Path-2" stroke="#4A4A4A"></path>
        <polygon id="Path-3" fill="#4A4A4A" points="5.5 37.5 2 34.5 1 39"></polygon>
        <path d="M4,26 C4.78971028,28.1309751 6.12304362,29.9643084 8,31.5 C9.87695638,33.0356916 12.2102897,34.2023583 15,35" id="Path-4" stroke="#4A4A4A"></path>
        <path d="M27,1 C27.7101449,3.66666667 29.1086957,5.83333333 31.1956522,7.5 C33.2826087,9.16666667 35.7173913,10.3333333 38.5,11" id="Path-4" stroke="#4A4A4A" transform="translate(32.750000, 6.000000) scale(-1, -1) rotate(2.000000) translate(-32.750000, -6.000000) "></path>
    </g>
</svg>