<svg width="98px" height="97px" viewBox="0 0 98 97" version="1.1" xmlns="http://www.w3.org/2000/svg" xmlns:xlink="http://www.w3.org/1999/xlink">
    <!-- Generator: Sketch 48.2 (47327) - http://www.bohemiancoding.com/sketch -->
    <g stroke="none" stroke-width="1" fill="none" fill-rule="evenodd" class="svg-stroke">
        <path d="M15,95.5 C19.1915104,94.2375781 22.6915104,92.9042448 25.5,91.5 C28.3084896,90.0957552 30.8084896,87.5957552 33,84 L91,84 C93.6666667,84 95.3333333,83.6666667 96,83 C96.6666667,82.3333333 97,80.6666667 97,78 L97,6 C97,3.33333333 96.6666667,1.66666667 96,1 C95.3222898,0.435606245 93.6556232,0.102272912 91,0 L5,0 C3.71325618,0.0553652787 2.71325618,0.388698612 2,1 C1.28674382,1.61130139 0.95341049,2.61130139 1,4 L1,78 C1,80.6666667 1.33333333,82.3333333 2,83 C2.66666667,83.6666667 4.33333333,84 7,84 L15,84 C16.3333333,84.3333333 17.3333333,85.5 18,87.5 C18.6666667,89.5 17.6666667,92.1666667 15,95.5 Z"></path>
        <circle cx="49" cy="67" r="4"></circle>
        <path d="M49,57 C51.209139,57 53,46.254834 53,33 C53,23.549562 52.8232614,14.4140509 51.5,10.5 C50.967304,8.92434819 49.634066,9 49,9 C48.3623029,9 47.0349748,8.90737787 46.5,10.5 C45.1816911,14.424611 45,23.5713487 45,33 C45,46.254834 46.790861,57 49,57 Z"></path>
    </g>
</svg>