<?xml version="1.0" encoding="UTF-8"?>
<svg width="44px" height="38px" viewBox="0 0 44 38" version="1.1" xmlns="http://www.w3.org/2000/svg" xmlns:xlink="http://www.w3.org/1999/xlink">
    <!-- Generator: Sketch 46.2 (44496) - http://www.bohemiancoding.com/sketch -->
    <g id="Main" stroke="none" stroke-width="1" fill="none" fill-rule="evenodd">
        <g id="Dashboard_Layout" transform="translate(-993.000000, -369.000000)">
            <g id="Group-3-Copy-2" transform="translate(993.000000, 369.000000)">
                <ellipse id="Oval-6" fill="#f26739" opacity="0.679121377" cx="21.6615385" cy="14.2153846" rx="18.2769231" ry="14.2153846"></ellipse>
                <g id="Group-2-Copy" transform="translate(0.000000, 2.707692)">
                    <g id="Group-5" transform="translate(26.400000, 16.246154)" fill-rule="nonzero">
                        <ellipse id="Oval" fill="#f26739" cx="8.63076923" cy="8.8" rx="1.86153846" ry="2.03076923"></ellipse>
                        <g id="Group" transform="translate(10.830769, 0.000000)" fill="#1d212c">
                            <ellipse id="Oval" cx="5.16153467" cy="1.6468663" rx="1.59135787" ry="1.63737428"></ellipse>
                            <ellipse id="Oval" cx="1.61903366" cy="5.41520014" rx="1.59135787" ry="1.63737428"></ellipse>
                            <path d="M3.74545679,1.38583562 L4.95396625,2.80014731 C5.25839993,2.94252768 5.03699362,3.22728843 4.81558731,3.2557645 L4.69104625,3.27000254 C4.67259573,3.27000254 4.6541452,3.27474855 4.63569468,3.28424058 C4.12369258,3.47408107 3.49176206,3.90122219 3.37183364,4.52294981 L3.2934189,4.88364675 C3.24729259,5.08297927 3.18271575,5.80911917 3.03972417,5.6667388 L1.23157262,3.95342832 C1.08858104,3.80630194 1.8588905,3.64968353 2.05723366,3.60696942 L2.44930734,3.5215412 C2.44930734,3.5215412 2.82754312,3.45509702 3.10891364,3.18932033 C3.51021259,2.80489332 3.51943785,2.33978411 3.55172627,2.14994361 C3.55172627,2.13570558 3.5563389,2.12621355 3.5563389,2.11197552 L3.5563389,2.11197552 C3.5563389,1.89840496 3.58401469,1.24345525 3.74545679,1.38583562 Z" id="Shape"></path>
                        </g>
                        <g id="Group" fill="#1d212c">
                            <ellipse id="Oval" cx="1.63287156" cy="1.64212029" rx="1.59135787" ry="1.63737428"></ellipse>
                            <ellipse id="Oval" cx="5.17537256" cy="5.41045413" rx="1.59135787" ry="1.63737428"></ellipse>
                            <path d="M3.24267996,2.11197552 L3.24267996,2.11197552 C3.24267996,2.12621355 3.24267996,2.13570558 3.24729259,2.14994361 C3.27958101,2.33978411 3.28419364,2.80489332 3.69010522,3.18932033 C3.96686311,3.45509702 4.34971152,3.5215412 4.34971152,3.5215412 L4.7417852,3.60696942 C4.94012836,3.64968353 5.71043782,3.80630194 5.56744624,3.95342832 L3.75929469,5.6667388 C3.62091574,5.80911917 3.55172627,5.08297927 3.50559995,4.88364675 L3.42718522,4.52294981 C3.3072568,3.90122219 2.67532628,3.46933506 2.16332418,3.28424058 C2.14487366,3.27949456 2.12642313,3.27474855 2.1079726,3.27000254 L1.98343155,3.2557645 C1.76663787,3.23203444 1.54061893,2.94252768 1.84505261,2.80014731 L3.04894943,1.38108961 C3.21039154,1.23870923 3.23806733,1.89365895 3.24267996,2.11197552 Z" id="Shape"></path>
                        </g>
                        <g id="Group" transform="translate(10.830769, 11.169231)" fill="#1d212c">
                            <ellipse id="Oval" cx="1.60993975" cy="1.63034637" rx="1.58241942" ry="1.62563439"></ellipse>
                            <ellipse id="Oval" cx="5.13254298" cy="5.37166146" rx="1.58241942" ry="1.62563439"></ellipse>
                            <path d="M3.21070606,2.09683276 L3.21070606,2.09683276 C3.21070606,2.11096872 3.21070606,2.12039268 3.21529279,2.13452863 C3.24739985,2.32300798 3.25198657,2.78478239 3.65561819,3.16645307 C3.93082156,3.43032416 4.31151957,3.49629193 4.31151957,3.49629193 L4.70139102,3.58110764 C4.89862011,3.6235155 5.66460284,3.77901096 5.52241443,3.92508245 L3.72441903,5.62610858 C3.58681734,5.7674681 3.5180165,5.04653458 3.47214927,4.84863127 L3.39417498,4.4905205 C3.27492018,3.87325063 2.64653914,3.44446011 2.13741289,3.26069275 C2.119066,3.25598076 2.10071911,3.25126878 2.08237222,3.2465568 L1.9585307,3.23242084 C1.74295472,3.20886093 1.5182053,2.92142992 1.82092901,2.78007041 L3.0180637,1.37118727 C3.178599,1.22982776 3.20611934,1.88008151 3.21070606,2.09683276 Z" id="Shape"></path>
                        </g>
                        <g id="Group" transform="translate(0.000000, 11.169231)" fill="#1d212c">
                            <ellipse id="Oval" cx="5.14630315" cy="1.62563439" rx="1.58241942" ry="1.62563439"></ellipse>
                            <ellipse id="Oval" cx="1.62369992" cy="5.36694948" rx="1.58241942" ry="1.62563439"></ellipse>
                            <path d="M3.7381792,1.36647528 L4.93531389,2.77535842 C5.2380376,2.91671793 5.0178749,3.19943696 4.7977122,3.22770886 L4.67387068,3.24184481 C4.65552379,3.24184481 4.6371769,3.2465568 4.61883001,3.25598076 C4.10970376,3.44446011 3.48132272,3.86853865 3.36206792,4.48580852 L3.28409363,4.84391928 C3.2382264,5.0418226 3.17401228,5.76275611 3.03182387,5.6213966 L1.23382847,3.92037047 C1.09164006,3.77429897 1.85762279,3.61880351 2.05485188,3.57639566 L2.44472333,3.49157995 C2.44472333,3.49157995 2.82083461,3.42561218 3.10062471,3.16174109 C3.49966961,2.78007041 3.50884305,2.318296 3.54095011,2.12981665 C3.54095011,2.1156807 3.54553684,2.10625673 3.54553684,2.09212078 L3.54553684,2.09212078 C3.55012356,1.87536953 3.5776439,1.22511577 3.7381792,1.36647528 Z" id="Shape"></path>
                        </g>
                    </g>
                    <path d="M23.7982212,30.3158692 C22.147629,30.7899662 20.4184371,31.0270147 18.6630454,31.0270147 C15.4491939,31.0270147 12.3226753,30.2105143 9.63282128,28.6740889 C9.30095617,28.4809382 8.88175815,28.4897178 8.54989305,28.6828684 C6.98663375,29.6222829 5.30984165,29.8681109 4.00858111,29.8681109 C4.85571045,29.0164922 5.52817395,27.9541638 5.98230514,26.7074643 C6.12203782,26.3299426 6.0347049,25.8997435 5.76397284,25.6012379 C3.38851737,23.0112636 2.13965658,19.8945148 2.13965658,16.5846154 C2.13965658,8.62154172 9.55422165,2.15099564 18.6717787,2.15099564 C27.1256055,2.15099564 34.1908389,7.6821273 35.0991013,15.0130716 C35.1689676,15.6013031 35.7016984,16.0227226 36.2955623,15.9437065 C36.8806929,15.8734699 37.2998909,15.3291363 37.2212913,14.7409048 C36.1820295,6.33885247 28.1998005,4.97379915e-14 18.6630454,4.97379915e-14 C8.3752272,4.8490339e-14 0,7.4450788 0,16.5846154 C0,20.1754612 1.31872712,23.6785112 3.73784905,26.5406524 C3.2400514,27.6029808 2.53265473,28.4370404 1.61565905,29.042831 C1.06546165,29.4027935 0.803462881,30.0612616 0.943195556,30.7021705 C1.08292823,31.3342998 1.59819247,31.8083968 2.2357228,31.8961925 C3.69418259,32.0981227 6.45390292,32.2122572 9.10882375,30.8338641 C11.9995435,32.36151 15.2832613,33.1692308 18.6630454,33.1692308 C20.6193028,33.1692308 22.5406271,32.9058435 24.3833518,32.3790691 C24.9510158,32.2210368 25.2828809,31.6240257 25.1169483,31.0533534 C24.9510158,30.4826811 24.3746185,30.1490573 23.7982212,30.3158692 Z" id="communication-2" fill="#1d212c" fill-rule="nonzero"></path>
                    <path d="M10.3230769,13.5384615 L20.8153846,13.5384615" id="Line" stroke="#1d212c" stroke-width="2" stroke-linecap="square"></path>
                    <path d="M10.3230769,17.6 L20.8153846,17.6" id="Line-Copy" stroke="#1d212c" stroke-width="2" stroke-linecap="square"></path>
                </g>
            </g>
        </g>
    </g>
</svg>