<?xml version="1.0" encoding="UTF-8"?>
<svg width="33px" height="35px" viewBox="0 0 33 35" version="1.1" xmlns="http://www.w3.org/2000/svg" xmlns:xlink="http://www.w3.org/1999/xlink">
    <!-- Generator: Sketch 46.2 (44496) - http://www.bohemiancoding.com/sketch -->
    <title>Group 10</title>
    <desc>Created with Sketch.</desc>
    <defs></defs>
    <g id="Welcome" stroke="none" stroke-width="1" fill="none" fill-rule="evenodd">
        <g id="Step-2:-Configure-the-Plugin" transform="translate(-111.000000, -387.000000)" fill-rule="nonzero">
            <g id="Group-10" transform="translate(111.000000, 387.000000)">
                <path d="M28.2277185,0 C25.8677272,0 23.913053,1.71755102 23.527348,3.97061224 L3.80409675,3.97061224 C3.35955546,3.97061224 3,4.32979592 3,4.77387755 C3,5.21795918 3.35955546,5.57714286 3.80409675,5.57714286 L23.5208106,5.57714286 C23.9065156,7.82367347 25.8611898,9.5477551 28.2211811,9.5477551 C30.855742,9.5477551 32.9934626,7.4122449 32.9934626,4.78040816 C32.9934626,2.14857143 30.855742,0 28.2277185,0 Z M28.2277185,7.93469388 C26.4822401,7.93469388 25.057093,6.51102041 25.057093,4.76734694 C25.057093,3.02367347 26.4822401,1.6 28.2277185,1.6 C29.9731968,1.6 31.3983439,3.02367347 31.3983439,4.76734694 C31.3983439,6.51102041 29.9731968,7.93469388 28.2277185,7.93469388 Z M32.2024406,15.1510204 C32.6404445,15.1510204 33,15.5102041 33,15.9412245 C33,16.3853061 32.6404445,16.7444898 32.1959032,16.7444898 L12.4791894,16.7444898 C12.0934844,18.997551 10.1388102,20.715102 7.77881891,20.715102 C5.15079538,20.715102 3.00653737,18.5795918 3.00653737,15.9477551 C3.00653737,13.3159184 5.14425801,11.1804082 7.77881891,11.1804082 C10.1388102,11.1804082 12.0934844,12.9044898 12.4791894,15.1510204 L32.2024406,15.1510204 Z M7.77881891,19.1216327 C9.5308346,19.1216327 10.9494443,17.6979592 10.9494443,15.9542857 C10.9494443,14.2106122 9.52429723,12.7869388 7.77881891,12.7869388 C6.0333406,12.7869388 4.60819351,14.2106122 4.60819351,15.9542857 C4.60819351,17.6979592 6.0333406,19.1216327 7.77881891,19.1216327 Z M28.2277185,22.4522449 C30.855742,22.4522449 32.9934626,24.6008163 32.9934626,27.2326531 C32.9934626,29.8644898 30.855742,32 28.2211811,32 C25.8611898,32 23.9065156,30.2759184 23.5208106,28.0293878 L3.80409675,28.0293878 C3.35955546,28.0293878 3,27.6702041 3,27.2261224 C3,26.7820408 3.35955546,26.4228571 3.80409675,26.4228571 L23.527348,26.4228571 C23.913053,24.1697959 25.8677272,22.4522449 28.2277185,22.4522449 Z M28.2277185,30.3869388 C29.9731968,30.3869388 31.3983439,28.9632653 31.3983439,27.2195918 C31.3983439,25.4759184 29.9731968,24.0522449 28.2277185,24.0522449 C26.4822401,24.0522449 25.057093,25.4759184 25.057093,27.2195918 C25.057093,28.9632653 26.4822401,30.3869388 28.2277185,30.3869388 Z" id="levels-1" fill="#F26739" opacity="0.762681159"></path>
                <path d="M25.2277185,3 C22.8677272,3 20.913053,4.71755102 20.527348,6.97061224 L0.804096753,6.97061224 C0.359555459,6.97061224 7.10542736e-14,7.32979592 7.10542736e-14,7.77387755 C7.10542736e-14,8.21795918 0.359555459,8.57714286 0.804096753,8.57714286 L20.5208106,8.57714286 C20.9065156,10.8236735 22.8611898,12.5477551 25.2211811,12.5477551 C27.855742,12.5477551 29.9934626,10.4122449 29.9934626,7.78040816 C29.9934626,5.14857143 27.855742,3 25.2277185,3 Z M25.2277185,10.9346939 C23.4822401,10.9346939 22.057093,9.51102041 22.057093,7.76734694 C22.057093,6.02367347 23.4822401,4.6 25.2277185,4.6 C26.9731968,4.6 28.3983439,6.02367347 28.3983439,7.76734694 C28.3983439,9.51102041 26.9731968,10.9346939 25.2277185,10.9346939 Z M29.2024406,18.1510204 C29.6404445,18.1510204 30,18.5102041 30,18.9412245 C30,19.3853061 29.6404445,19.7444898 29.1959032,19.7444898 L9.47918937,19.7444898 C9.09348442,21.997551 7.1388102,23.715102 4.77881891,23.715102 C2.15079538,23.715102 0.00653737198,21.5795918 0.00653737198,18.9477551 C0.00653737198,16.3159184 2.14425801,14.1804082 4.77881891,14.1804082 C7.1388102,14.1804082 9.09348442,15.9044898 9.47918937,18.1510204 L29.2024406,18.1510204 Z M4.77881891,22.1216327 C6.5308346,22.1216327 7.94944432,20.6979592 7.94944432,18.9542857 C7.94944432,17.2106122 6.52429723,15.7869388 4.77881891,15.7869388 C3.0333406,15.7869388 1.60819351,17.2106122 1.60819351,18.9542857 C1.60819351,20.6979592 3.0333406,22.1216327 4.77881891,22.1216327 Z M25.2277185,25.4522449 C27.855742,25.4522449 29.9934626,27.6008163 29.9934626,30.2326531 C29.9934626,32.8644898 27.855742,35 25.2211811,35 C22.8611898,35 20.9065156,33.2759184 20.5208106,31.0293878 L0.804096753,31.0293878 C0.359555459,31.0293878 7.10542736e-14,30.6702041 7.10542736e-14,30.2261224 C7.10542736e-14,29.7820408 0.359555459,29.4228571 0.804096753,29.4228571 L20.527348,29.4228571 C20.913053,27.1697959 22.8677272,25.4522449 25.2277185,25.4522449 Z M25.2277185,33.3869388 C26.9731968,33.3869388 28.3983439,31.9632653 28.3983439,30.2195918 C28.3983439,28.4759184 26.9731968,27.0522449 25.2277185,27.0522449 C23.4822401,27.0522449 22.057093,28.4759184 22.057093,30.2195918 C22.057093,31.9632653 23.4822401,33.3869388 25.2277185,33.3869388 Z" id="levels-1" fill="#505050"></path>
            </g>
        </g>
    </g>
</svg>