<svg width="22px" height="22px" viewBox="0 0 22 22" version="1.1" xmlns="http://www.w3.org/2000/svg" xmlns:xlink="http://www.w3.org/1999/xlink">
    <!-- Generator: Sketch 48.2 (47327) - http://www.bohemiancoding.com/sketch -->
    <path class="svg-fill" fill-rule="nonzero" transform="translate(-1.000000, -1.000000)" d="M12,1 C18.0751322,1 23,5.92486775 23,12 C23,18.0751322 18.0751322,23 12,23 C5.92486775,23 1,18.0751322 1,12 C1,8.75076753 2.40878484,5.83057439 4.64886188,3.81691322 L3.4520854,2.26647558 L5,1 L6.2506722,2.62026017 C6.25282194,2.61893967 6.25497216,2.6176199 6.25712287,2.61630084 L7.49450517,4.20722093 C7.49016056,4.20973825 7.48581824,4.2122591 7.48147823,4.21478348 L8.71734051,5.81585722 C8.72402063,5.81230389 8.73070719,5.80876108 8.73740017,5.80522879 L9.99273154,7.41922626 C9.98333517,7.42334964 9.97395389,7.42750104 9.96458781,7.4316804 L11.9475831,10.0006735 C11.9650009,10.0002254 11.9824741,10 12,10 C13.1045695,10 14,10.8954305 14,12 C14,13.1045695 13.1045695,14 12,14 C10.8954305,14 10,13.1045695 10,12 C10,11.6584992 10.0855912,11.3369893 10.236492,11.055752 L8.33773119,8.59588568 C7.50767649,9.48848408 7,10.6849549 7,12 C7,14.7614237 9.23857625,17 12,17 C14.7614237,17 17,14.7614237 17,12 C17,9.23857625 14.7614237,7 12,7 L12,5 C15.8659932,5 19,8.13400675 19,12 C19,15.8659932 15.8659932,19 12,19 C8.13400675,19 5,15.8659932 5,12 C5,10.0399196 5.80561127,8.26799971 7.10378284,6.99729145 L5.8751306,5.40555839 C4.10651601,7.04898664 3,9.39527299 3,12 C3,16.9705627 7.02943725,21 12,21 C16.9705627,21 21,16.9705627 21,12 C21,7.02943725 16.9705627,3 12,3 L12,1 Z" />
</svg>