<?xml version="1.0" encoding="UTF-8"?>
<svg width="320px" height="320px" viewBox="0 0 340 320" version="1.1" xmlns="http://www.w3.org/2000/svg" xmlns:xlink="http://www.w3.org/1999/xlink">
    <!-- Generator: Sketch 48.2 (47327) - http://www.bohemiancoding.com/sketch -->
    <path class="svg-stroke" d="M8.00000735,35.0909059 C6.89543787,35.0909059 6.00000738,35.9863364 6.00000735,37.0909058 L6,312 C6,313.10457 6.8954305,314 8,314 L312,314 C313.104569,314 314,313.104569 314,312 L314,37.0590015 C314,35.9575518 313.109433,35.0634189 312.007992,35.0590175 L195.471354,34.5933367 L193.695532,31.9657882 C181.808205,14.3770172 170.485032,6 160.000004,6 C149.655398,6 139.07375,14.3953562 128.487746,32.1620742 L126.74265,35.0909057 L8.00000735,35.0909057 Z" stroke-width="24" fill="none"></path>
    <path class="svg-stroke" d="M253,105 L66,105" stroke-width="18" stroke-linecap="square" fill="none"></path>
    <path class="svg-stroke" d="M253,245 L66,245" stroke-width="18" stroke-linecap="square" fill="none"></path>
    <path class="svg-stroke" d="M253,175 L66,175" stroke-width="18" stroke-linecap="square" fill="none"></path>
</svg>