<?xml version="1.0" encoding="UTF-8"?>
<svg width="456px" height="548px" viewBox="0 0 456 548" version="1.1" xmlns="http://www.w3.org/2000/svg" xmlns:xlink="http://www.w3.org/1999/xlink">
    <g stroke="none" stroke-width="1" fill="none" fill-rule="nonzero">
        <path class="svg-stroke" d="M227,547 C378.333333,494.421674 454,442.755008 454,392 C454,392 454,298.605033 454,111.8151 C410.666667,113.343606 365,103.756549 317,83.0539291 C269,62.3513097 239,34.6666667 227,0 C212.333333,34.6666667 182.666667,62.3513097 138,83.0539291 C93.3333333,103.756549 47.3333333,113.343606 0,111.8151 C0,298.605033 0,392 0,392 C0,445.57473 75.6666667,497.241397 227,547 Z"></path>
        <polygon class="svg-fill" points="227 358.586698 140.475242 403 157 308.931116 87 242.311163 183.737621 228.586698 227 143 270.262379 228.586698 367 242.311163 297 308.931116 313.524758 403"></polygon>
    </g>
</svg>