<svg width="451px" height="457px" viewBox="0 0 451 457" version="1.1" xmlns="http://www.w3.org/2000/svg" xmlns:xlink="http://www.w3.org/1999/xlink">
    <!-- Generator: Sketch 51.2 (57519) - http://www.bohemiancoding.com/sketch -->
    <g id="Page-1" stroke="none" stroke-width="1" fill="none" fill-rule="evenodd" transform="translate(12.000000, 12.000000)">
        <polygon class="svg-fill" points="214 264.835921 152.196601 299 164 226.63932 114 175.393202 183.098301 164.835921 214 99 244.901699 164.835921 314 175.393202 264 226.63932 275.803399 299"></polygon>
        <path d="M62,5 C76,5 100.0404,34.2569404 138,33 C175.9596,31.7430596 195,2.23042055e-15 213,0 C231,0 258.118826,31.8274126 294,33 C329.881174,34.1725874 357,5 366,5 C370.735157,5 384.557061,21.5814243 399,37 C412.008413,50.8871459 426,63.3657992 426,70 C426,84 384,124 384,164 C384,182.75364 399.192575,209.942626 409,240 C420.111021,274.052577 430,304 426,319 C421.880517,334.448063 419.801691,348.627275 384,365 C348.198309,381.372725 289.498556,383.868953 262,394 C243.667629,400.754031 227.334296,412.087365 213,428 C193.666667,412.666667 174.666667,401.333333 156,394 C128,383 76.5868591,378.464147 43,362 C9.4131409,345.535853 8.70536311,332.855882 3,319 C-4,302 4.93457928,271.753112 15,240 C24.9337118,208.662386 43,185.358407 43,164 C43,121 3,89 3,70 C3,61.6101942 16.9950114,49.6337037 28,37 C41.9174933,21.0227471 54.1819622,5 62,5 Z" class="svg-stroke" stroke-width="24"></path>
    </g>
</svg>