<svg width="18px" height="18px" viewBox="0 0 18 18" version="1.1" xmlns="http://www.w3.org/2000/svg" xmlns:xlink="http://www.w3.org/1999/xlink">
    <!-- Generator: Sketch 48.2 (47327) - http://www.bohemiancoding.com/sketch -->
    <path class="svg-fill" transform="translate(9.000000, 9.000000) scale(-1, 1) translate(-92.000000, -173.000000) translate(80.000000, 161.000000)" d="M13.5,17 L18.5,12 L13.5,7 L12.09,8.41 L14.67,11 L7,11 L7,13 L14.67,13 L12.09,15.59 L13.5,17 Z M5,3 L19,3 C20.11,3 21,3.9 21,5 L21,9 L19,9 L19,5 L5,5 L5,19 L19,19 L19,15 L21,15 L21,19 C21,20.1 20.11,21 19,21 L5,21 C3.9,21 3,20.1 3,19 L3,5 C3,3.9 3.9,3 5,3 L5,3 Z" />
</svg>