<svg xmlns="http://www.w3.org/2000/svg" viewBox="0 0 463.98 464.49">
<g fill="none" class="svg-stroke" stroke-width="20px" stroke-miterlimit="10">
	<line x1="114.87" y1="144.87" x2="316.87" y2="346.87"/>
	<line x1="146.87" y1="116.87" x2="349.87" y2="316.87"/>
	<path d="M299.26,330.86l-56.42,56.42a46.53,46.53,0,0,1-65.61.13L78.49,288.66a46.53,46.53,0,0,1,.13-65.61l55.87-55.87"/>
	<path d="M299.26,330.86"/>
	<path d="M172.61,129.06,221.47,80.2a46.53,46.53,0,0,1,65.61-.13l98.75,98.75a46.53,46.53,0,0,1-.13,65.61l-50.52,50.52"/>
	<circle class="svg-fill" cx="146.88" cy="116.88" r="9.87"/>
	<circle class="svg-fill" cx="114.88" cy="144.55" r="9.87"/>
	<circle class="svg-fill" cx="316.21" cy="346.22" r="9.87"/>
	<circle class="svg-fill" cx="350.21" cy="317.55" r="9.87"/>
	<line x1="321.36" y1="110.04" x2="425.62" y2="7.12"/>
	<line x1="352.69" y1="139.71" x2="456.96" y2="36.78"/>
	<line x1="7.03" y1="426.38" x2="111.29" y2="323.45"/>
	<line x1="37.69" y1="457.38" x2="141.96" y2="354.45"/>
	<line x1="319.53" y1="110.2" x2="322.87" y2="108.2"/>
</g>
</svg>