<?xml version="1.0" encoding="UTF-8"?>
<svg width="526px" height="340px" viewBox="0 0 526 340" version="1.1" xmlns="http://www.w3.org/2000/svg" xmlns:xlink="http://www.w3.org/1999/xlink">
    <!-- Generator: Sketch 51.2 (57519) - http://www.bohemiancoding.com/sketch -->
    <title>binocular</title>
    <desc>Created with Sketch.</desc>
    <defs>
        <circle id="path-1" cx="121" cy="255" r="80"></circle>
        <circle id="path-2" cx="121" cy="255" r="80"></circle>
    </defs>
    <g id="Page-1" stroke="none" stroke-width="1" fill="none" fill-rule="evenodd">
        <g id="binocular" transform="translate(3.000000, 3.000000)">
            <g id="left">
                <path d="M120,264 C186.27417,264 240,132 240,120 C240,53.7583624 186.27417,0 120,0 C53.72583,0 -7.4782268e-12,66.2016707 -1.36424205e-12,120 C6.05845175e-28,132 53.72583,264 120,264 Z" id="4" stroke="#1D222C" stroke-width="5" fill="#FF7D46"></path>
                <circle id="3" stroke="#1D222C" stroke-width="4" fill="#FF7D46" cx="120" cy="147" r="100"></circle>
                <path d="M41,257 L41,145 C51.6666667,99 78.3333333,76 121,76 C163.666667,76 190.333333,99 201,145 L201,257 L41,257 Z" id="2" stroke="#1D222C" stroke-width="4" fill="#FF7D46"></path>
                <g id="1">
                    <use fill="#FFFFFF" xlink:href="#path-1"></use>
                    <use stroke="#1D222C" stroke-width="4" fill-opacity="0.4" fill="#0076FF" xlink:href="#path-1"></use>
                </g>
            </g>
            <g id="right" transform="translate(280.000000, 0.000000)">
                <path d="M120,264 C186.27417,264 240,132 240,120 C240,53.7583624 186.27417,0 120,0 C53.72583,0 -7.02347945e-12,66.2016707 -9.09494702e-13,120 C4.54747351e-13,132 53.72583,264 120,264 Z" id="4" stroke="#1D222C" stroke-width="5" fill="#FF7D46"></path>
                <circle id="3" stroke="#1D222C" stroke-width="4" cx="120" cy="147" r="100"></circle>
                <path d="M41,257 L41,145 C51,99 77.6666667,76 121,76 C164.333333,76 191,99 201,145 L201,257 L41,257 Z" id="2" stroke="#1D222C" stroke-width="4" fill="#FF7D46"></path>
                <g id="1">
                    <use fill="#F7F7F7" xlink:href="#path-2"></use>
                    <use stroke="#1D222C" stroke-width="4" fill-opacity="0.4" fill="#0076FF" xlink:href="#path-2"></use>
                </g>
            </g>
            <path d="M322,206 C325.333333,197.333333 329.666667,190.333333 335,185 C340.333333,179.666667 346.666667,174.333333 354,169 C322.722351,161.666667 291.722351,158 261,158 C230.277649,158 200.277649,161.666667 171,169 C180.333333,173 187.666667,178.333333 193,185 C198.333333,191.666667 201,198.666667 201,206 C221.166667,199.333333 241.333333,196 261.5,196 C281.666667,196 301.833333,199.333333 322,206 Z" id="bridge" stroke="#1D222C" stroke-width="4" fill="#FF7D46"></path>
        </g>
    </g>
</svg>