<svg xmlns="http://www.w3.org/2000/svg" width="98" height="98" viewBox="0 0 98 98">
    <g id="prefix__Group_36" data-name="Group 36" transform="translate(-10799 -2669)">
        <g id="prefix__Ellipse_51" data-name="Ellipse 51" transform="translate(10799 2669)" style="stroke:#707070;stroke-width:4px;stroke-dasharray:12;fill:#fff">
            <circle cx="49" cy="49" r="49" style="stroke:none"/>
            <circle cx="49" cy="49" r="47" style="fill:none"/>
        </g>
        <circle id="prefix__Ellipse_52" cx="10" cy="10" r="10" data-name="Ellipse 52" transform="translate(10872 2744)" style="fill:#ff7e46"/>
        <path id="prefix__Path_5" d="M10984.791 2747.945l-5.083 6.137h2.735v5.464l4.836-5.464h-2.488z" data-name="Path 5" transform="translate(-102)" style="fill:#fff"/>
        <g id="prefix__enforcements" transform="translate(10833 2698)">
            <path id="prefix__Path" d="M15.5 37Q31 31.665 31 26.516V7.563a21.837 21.837 0 0 1-9.355-1.945Q16.729 3.517 15.5 0 14 3.517 9.423 5.618A20.724 20.724 0 0 1 0 7.563v18.953Q0 31.951 15.5 37z" style="stroke:#727272;stroke-miterlimit:10;fill:none"/>
            <path id="prefix__Path-2" d="M9.5 14.925L3.629 18l1.121-6.512L0 6.875l6.564-.95L9.5 0l2.936 5.925 6.564.95-4.75 4.612L15.371 18z" data-name="Path" transform="translate(6 9)" style="fill:#727272"/>
        </g>
    </g>
</svg>
