<?xml version="1.0" encoding="UTF-8"?>
<svg width="547px" height="657px" viewBox="0 0 547 657" version="1.1" xmlns="http://www.w3.org/2000/svg" xmlns:xlink="http://www.w3.org/1999/xlink">
    <!-- Generator: Sketch 48.2 (47327) - http://www.bohemiancoding.com/sketch -->
    <title>see_all</title>
    <desc>Created with Sketch.</desc>
    <defs>
        <radialGradient cx="50%" cy="13.4391644%" fx="50%" fy="13.4391644%" r="40.2988384%" gradientTransform="translate(0.500000,0.134392),scale(1.000000,0.909091),rotate(179.999999),scale(1.000000,1.933774),translate(-0.500000,-0.134392)" id="radialGradient-1">
            <stop stop-color="#F7C8B4" offset="0%"></stop>
            <stop stop-color="#FBA37D" offset="55.2509646%"></stop>
            <stop stop-color="#FF7D46" offset="100%"></stop>
        </radialGradient>
        <radialGradient cx="50%" cy="13.4391644%" fx="50%" fy="13.4391644%" r="40.2988384%" gradientTransform="translate(0.500000,0.134392),rotate(179.999999),scale(1.000000,1.933774),translate(-0.500000,-0.134392)" id="radialGradient-2">
            <stop stop-color="#F7C8B4" offset="0%"></stop>
            <stop stop-color="#FBA37D" offset="55.2509646%"></stop>
            <stop stop-color="#FF7D46" offset="100%"></stop>
        </radialGradient>
        <radialGradient cx="50%" cy="13.4391644%" fx="50%" fy="13.4391644%" r="40.2988384%" gradientTransform="translate(0.500000,0.134392),scale(1.000000,0.883978),rotate(179.999999),scale(1.000000,1.933774),translate(-0.500000,-0.134392)" id="radialGradient-3">
            <stop stop-color="#F7C8B4" offset="0%"></stop>
            <stop stop-color="#FBA37D" offset="55.2509646%"></stop>
            <stop stop-color="#FF7D46" offset="100%"></stop>
        </radialGradient>
        <path d="M120,264 C186.27417,264 240,132 240,120 C240,53.7583624 186.27417,0 120,0 C53.72583,0 -7.4782268e-12,66.2016707 -1.36424205e-12,120 C1.21169035e-27,132 53.72583,264 120,264 Z" id="path-4"></path>
        <rect id="path-5" x="6" y="0" width="30" height="30" rx="4"></rect>
        <rect id="path-6" x="6" y="0" width="30" height="30" rx="4"></rect>
        <rect id="path-7" x="6" y="0" width="30" height="30" rx="4"></rect>
        <rect id="path-8" x="0" y="0" width="16" height="30" rx="2"></rect>
        <rect id="path-9" x="0" y="0" width="16" height="30" rx="2"></rect>
        <rect id="path-10" x="0" y="0" width="16" height="30" rx="2"></rect>
        <radialGradient cx="50%" cy="50%" fx="50%" fy="50%" r="56.3020617%" id="radialGradient-11">
            <stop stop-color="#0076FF" stop-opacity="0" offset="0%"></stop>
            <stop stop-color="#0076FF" stop-opacity="0.188926728" offset="73.0655784%"></stop>
            <stop stop-color="#0076FF" stop-opacity="0.600628397" offset="100%"></stop>
        </radialGradient>
        <filter x="-1.4%" y="-3.9%" width="102.8%" height="107.7%" filterUnits="objectBoundingBox" id="filter-12">
            <feGaussianBlur stdDeviation="2" in="SourceGraphic"></feGaussianBlur>
        </filter>
        <filter x="-1.4%" y="-2.5%" width="102.9%" height="105.0%" filterUnits="objectBoundingBox" id="filter-13">
            <feGaussianBlur stdDeviation="2" in="SourceGraphic"></feGaussianBlur>
        </filter>
        <filter x="-1.9%" y="-2.5%" width="103.8%" height="105.0%" filterUnits="objectBoundingBox" id="filter-14">
            <feGaussianBlur stdDeviation="2" in="SourceGraphic"></feGaussianBlur>
        </filter>
        <radialGradient cx="50%" cy="50%" fx="50%" fy="50%" r="77.5422353%" gradientTransform="translate(0.500000,0.500000),scale(0.958333,1.000000),rotate(180.000000),scale(1.000000,1.248431),translate(-0.500000,-0.500000)" id="radialGradient-15">
            <stop stop-color="#F7C8B4" offset="0%"></stop>
            <stop stop-color="#FBA37D" offset="55.2509646%"></stop>
            <stop stop-color="#FF7D46" offset="100%"></stop>
        </radialGradient>
        <radialGradient cx="50%" cy="50%" fx="50%" fy="50%" r="77.5422353%" gradientTransform="translate(0.500000,0.500000),rotate(180.000000),scale(1.000000,1.248431),translate(-0.500000,-0.500000)" id="radialGradient-16">
            <stop stop-color="#F7C8B4" offset="0%"></stop>
            <stop stop-color="#FBA37D" offset="55.2509646%"></stop>
            <stop stop-color="#FF7D46" offset="100%"></stop>
        </radialGradient>
    </defs>
    <g id="Page-1" stroke="none" stroke-width="1" fill="none" fill-rule="evenodd">
        <g id="see_all" transform="translate(1.000000, 5.000000)">
            <g id="binocular" transform="translate(12.000000, 313.000000)">
                <g id="left" stroke="#1D222C">
                    <path d="M120,264 C186.27417,264 240,132 240,120 C240,53.7583624 186.27417,0 120,0 C53.72583,0 -7.4782268e-12,66.2016707 -1.36424205e-12,120 C1.21169035e-27,132 53.72583,264 120,264 Z" id="4" stroke-width="5" fill="url(#radialGradient-1)"></path>
                    <circle id="3" stroke-width="4" fill="url(#radialGradient-2)" cx="120" cy="147" r="100"></circle>
                    <path d="M41,257 L41,145 C51.6666667,99 78.3333333,76 121,76 C163.666667,76 190.333333,99 201,145 L201,257 L41,257 Z" id="2" stroke-width="4" fill="url(#radialGradient-3)"></path>
                    <circle id="1" stroke-width="4" fill="#FFFFFF" cx="121" cy="255" r="80"></circle>
                </g>
                <g id="right" transform="translate(280.000000, 0.000000)">
                    <g id="4">
                        <use fill="#FFFFFF" xlink:href="#path-4"></use>
                        <use stroke="#1D222C" stroke-width="5" fill="url(#radialGradient-1)" xlink:href="#path-4"></use>
                    </g>
                    <circle id="3" stroke="#1D222C" stroke-width="4" fill="url(#radialGradient-2)" cx="120" cy="147" r="100"></circle>
                    <path d="M41,257 L41,145 C51,99 77.6666667,76 121,76 C164.333333,76 191,99 201,145 L201,257 L41,257 Z" id="2" stroke="#1D222C" stroke-width="4" fill="url(#radialGradient-3)"></path>
                    <circle id="1" stroke="#1D222C" stroke-width="4" fill="#FFFFFF" cx="121" cy="255" r="80"></circle>
                </g>
                <path d="M322,206 C325.333333,197.333333 329.666667,190.333333 335,185 C340.333333,179.666667 346.666667,174.333333 354,169 C322.722351,161.666667 291.722351,158 261,158 C230.277649,158 200.277649,161.666667 171,169 C180.333333,173 187.666667,178.333333 193,185 C198.333333,191.666667 201,198.666667 201,206 C221.166667,199.333333 241.333333,196 261.5,196 C281.666667,196 301.833333,199.333333 322,206 Z" id="bridge" stroke="#1D222C" stroke-width="4" fill="#FF7D46"></path>
            </g>
            <g id="order" transform="translate(85.000000, 513.000000)">
                <g id="pc" transform="translate(0.000000, 38.000000)">
                    <g id="Rectangle-2">
                        <use fill="#F7F7F7" fill-rule="evenodd" xlink:href="#path-5"></use>
                        <rect stroke="#1D222C" stroke-width="1" x="6.5" y="0.5" width="29" height="29" rx="4"></rect>
                    </g>
                    <path d="M33,35 C36,35 43,46 40,46 C37,46 6,46 2,46 C-2,46 4,35 8,35 C12,35 30,35 33,35 Z" id="Path-3" stroke="#1D222C" fill="#F7F7F7"></path>
                </g>
                <g id="pc" transform="translate(9.000000, 46.000000)">
                    <g id="Rectangle-2">
                        <use fill="#F7F7F7" fill-rule="evenodd" xlink:href="#path-6"></use>
                        <rect stroke="#1D222C" stroke-width="1" x="6.5" y="0.5" width="29" height="29" rx="4"></rect>
                    </g>
                    <path d="M33,35 C36,35 43,46 40,46 C37,46 6,46 2,46 C-2,46 4,35 8,35 C12,35 30,35 33,35 Z" id="Path-3" stroke="#1D222C" fill="#F7F7F7"></path>
                </g>
                <g id="pc" transform="translate(21.000000, 54.000000)">
                    <g id="Rectangle-2">
                        <use fill="#F7F7F7" fill-rule="evenodd" xlink:href="#path-7"></use>
                        <rect stroke="#1D222C" stroke-width="1" x="6.5" y="0.5" width="29" height="29" rx="4"></rect>
                    </g>
                    <path d="M33,35 C36,35 43,46 40,46 C37,46 6,46 2,46 C-2,46 4,35 8,35 C12,35 30,35 33,35 Z" id="Path-3" stroke="#1D222C" fill="#F7F7F7"></path>
                </g>
                <path d="M81,23 C85,23 87,21.3333333 87,18 C87,14.6666667 85,13 81,13 C82.3333333,9 82.3333333,6.33333333 81,5 C78.5986555,2.59865545 74.9319888,2.59865545 70,5 C69.3333333,1.66666667 67.1666667,0 63.5,0 C59.8333333,2.12792746e-16 57.6666667,1.66666667 57,5 C53,1.66666667 49.6666667,1.66666667 47,5 C45.7678656,6.54016794 45.7678656,9.20683461 47,13 C42.3333333,13 40,14.6666667 40,18 C40,21.3333333 42.3333333,23 47,23 L81,23 Z" id="cloud" stroke="#1D222C" fill="#F7F7F7"></path>
                <path d="M92,37 C96,37 98,35.3333333 98,32 C98,28.6666667 96,27 92,27 C93.3333333,23 93.3333333,20.3333333 92,19 C89.5986555,16.5986555 85.9319888,16.5986555 81,19 C80.3333333,15.6666667 78.1666667,14 74.5,14 C70.8333333,14 68.6666667,15.6666667 68,19 C64,15.6666667 60.6666667,15.6666667 58,19 C56.7678656,20.5401679 56.7678656,23.2068346 58,27 C53.3333333,27 51,28.6666667 51,32 C51,35.3333333 53.3333333,37 58,37 L92,37 Z" id="cloud" stroke="#1D222C" fill="#F7F7F7"></path>
                <path d="M103,51 C107,51 109,49.3333333 109,46 C109,42.6666667 107,41 103,41 C104.333333,37 104.333333,34.3333333 103,33 C100.598655,30.5986555 96.9319888,30.5986555 92,33 C91.3333333,29.6666667 89.1666667,28 85.5,28 C81.8333333,28 79.6666667,29.6666667 79,33 C75,29.6666667 71.6666667,29.6666667 69,33 C67.7678656,34.5401679 67.7678656,37.2068346 69,41 C64.3333333,41 62,42.6666667 62,46 C62,49.3333333 64.3333333,51 69,51 L103,51 Z" id="cloud" stroke="#1D222C" fill="#F7F7F7"></path>
                <g id="mobile" transform="translate(338.000000, 2.000000)">
                    <g id="Rectangle-3">
                        <use fill="#F7F7F7" fill-rule="evenodd" xlink:href="#path-8"></use>
                        <rect stroke="#000000" stroke-width="1" x="0.5" y="0.5" width="15" height="29" rx="2"></rect>
                    </g>
                    <circle id="Oval-2" fill="#000000" cx="8" cy="23" r="2"></circle>
                </g>
                <g id="mobile" transform="translate(350.000000, 11.000000)">
                    <g id="Rectangle-3">
                        <use fill="#F7F7F7" fill-rule="evenodd" xlink:href="#path-9"></use>
                        <rect stroke="#000000" stroke-width="1" x="0.5" y="0.5" width="15" height="29" rx="2"></rect>
                    </g>
                    <circle id="Oval-2" fill="#000000" cx="8" cy="23" r="2"></circle>
                </g>
                <g id="mobile" transform="translate(362.000000, 20.000000)">
                    <g id="Rectangle-3">
                        <use fill="#F7F7F7" fill-rule="evenodd" xlink:href="#path-10"></use>
                        <rect stroke="#000000" stroke-width="1" x="0.5" y="0.5" width="15" height="29" rx="2"></rect>
                    </g>
                    <circle id="Oval-2" fill="#000000" cx="8" cy="23" r="2"></circle>
                </g>
                <g id="server" transform="translate(280.000000, 33.000000)">
                    <path d="M0,13 L12,0 L31,0 L31,38 L19,51 C15.3333333,53 12,54 9,54 C6,54 3,53 0,51 L0,13 Z" id="Path-5" stroke="#1D222C" fill="#F7F7F7"></path>
                    <path d="M0,13 C3,14.3333333 6.16666667,15 9.5,15 C12.8333333,15 16,14.3333333 19,13 L19,51" id="Path-6" stroke="#1D222C"></path>
                    <path d="M19,13 L31,0" id="Path-7" stroke="#1D222C"></path>
                    <circle id="Oval-3" fill="#000000" cx="9" cy="45" r="2"></circle>
                    <path d="M3,22 C4.66666667,22.5 6.33333333,22.75 8,22.75 C9.66666667,22.75 11.3333333,22.5 13,22" id="Path-8" stroke="#1D222C"></path>
                    <path d="M3,29 C4.66666667,29.5454545 6.33333333,29.8181818 8,29.8181818 C9.66666667,29.8181818 11.3333333,29.5454545 13,29" id="Path-8" stroke="#1D222C"></path>
                </g>
                <g id="server" transform="translate(296.000000, 42.000000)">
                    <path d="M0,13 L12,0 L31,0 L31,38 L19,51 C15.3333333,53 12,54 9,54 C6,54 3,53 0,51 L0,13 Z" id="Path-5" stroke="#1D222C" fill="#F7F7F7"></path>
                    <path d="M0,13 C3,14.3333333 6.16666667,15 9.5,15 C12.8333333,15 16,14.3333333 19,13 L19,51" id="Path-6" stroke="#1D222C"></path>
                    <path d="M19,13 L31,0" id="Path-7" stroke="#1D222C"></path>
                    <circle id="Oval-3" fill="#000000" cx="9" cy="45" r="2"></circle>
                    <path d="M3,21 C4.66666667,21.5 6.33333333,21.75 8,21.75 C9.66666667,21.75 11.3333333,21.5 13,21" id="Path-8" stroke="#1D222C"></path>
                    <path d="M3,28 C4.66666667,28.5 6.33333333,28.75 8,28.75 C9.66666667,28.75 11.3333333,28.5 13,28" id="Path-8" stroke="#1D222C"></path>
                </g>
                <g id="server" transform="translate(312.000000, 51.000000)">
                    <path d="M0,13 L12,0 L31,0 L31,38 L19,51 C15.3333333,53 12,54 9,54 C6,54 3,53 0,51 L0,13 Z" id="Path-5" stroke="#1D222C" fill="#F7F7F7"></path>
                    <path d="M0,13 C3,14.3333333 6.16666667,15 9.5,15 C12.8333333,15 16,14.3333333 19,13 L19,51" id="Path-6" stroke="#1D222C"></path>
                    <path d="M19,13 L31,0" id="Path-7" stroke="#1D222C"></path>
                    <path d="M4,20 C5.66666667,20.5 7.33333333,20.75 9,20.75 C10.6666667,20.75 12.3333333,20.5 14,20" id="Path-8" stroke="#1D222C"></path>
                    <path d="M4,27 C5.66666667,27.5 7.33333333,27.75 9,27.75 C10.6666667,27.75 12.3333333,27.5 14,27" id="Path-8" stroke="#1D222C"></path>
                    <circle id="Oval-3" fill="#000000" cx="9" cy="45" r="2"></circle>
                </g>
            </g>
            <circle id="lense" stroke="#000000" stroke-width="8" fill="url(#radialGradient-11)" cx="133" cy="569" r="79"></circle>
            <circle id="lense" stroke="#000000" stroke-width="8" fill="url(#radialGradient-11)" cx="413" cy="569" r="79"></circle>
            <g id="mess">
                <polygon id="Path-14" stroke="#727272" stroke-width="2" filter="url(#filter-12)" points="31 146 265 183 402 219 524 188 209 38 376 153 186 152"></polygon>
                <polygon id="Path-13" stroke="#ADADAD" stroke-width="2" filter="url(#filter-13)" points="520 187 377 152 400 216 315 291 267 182 175 266 92 194 29 145 188 152 290 119 208 38 400 10"></polygon>
                <polygon id="Path-15" stroke="#DEDEDE" stroke-width="2" filter="url(#filter-14)" points="31 145 211 38 187 151 174 265 315 294 377 151 289 123 402 12 382 151 267 183"></polygon>
                <g id="nodes">
                    <ellipse id="Oval-6" fill="url(#radialGradient-15)" cx="377" cy="152.5" rx="12" ry="11.5"></ellipse>
                    <circle id="Oval-6" fill="url(#radialGradient-16)" cx="377" cy="153" r="12"></circle>
                    <circle id="Oval-6" fill="url(#radialGradient-16)" cx="266" cy="182" r="6"></circle>
                    <circle id="Oval-6" fill="url(#radialGradient-16)" cx="290" cy="123" r="18"></circle>
                    <circle id="Oval-6" fill="url(#radialGradient-16)" cx="314" cy="295" r="18"></circle>
                    <circle id="Oval-6" fill="url(#radialGradient-16)" cx="401" cy="220" r="12"></circle>
                    <circle id="Oval-6" fill="url(#radialGradient-16)" cx="174" cy="266" r="24"></circle>
                    <circle id="Oval-6" fill="url(#radialGradient-16)" cx="401" cy="12" r="12"></circle>
                    <circle id="Oval-6" fill="url(#radialGradient-16)" cx="520" cy="188" r="24"></circle>
                    <circle id="Oval-6" fill="url(#radialGradient-16)" cx="186" cy="152" r="12"></circle>
                    <circle id="Oval-6" fill="url(#radialGradient-16)" cx="210" cy="39" r="12"></circle>
                    <circle id="Oval-6" fill="url(#radialGradient-16)" cx="30" cy="146" r="30"></circle>
                    <circle id="Oval-6" fill="url(#radialGradient-16)" cx="91" cy="194" r="6"></circle>
                </g>
            </g>
        </g>
    </g>
</svg>