<svg xmlns="http://www.w3.org/2000/svg" viewBox="0 0 61 62.18">
    <path fill="#FF7D46" d="M9.74,19.25h61a13.78,13.78,0,0,1-1.22,2.23c-.77.9-1.7,1.67-2.55,2.51a4,4,0,0,0-.59.65c-3,4.41-5.78,8.91-8.85,13.22-2.68,3.77-5.63,7.34-8.47,11-.65.84-1.38,1.61-2,2.46a1.7,1.7,0,0,0-.24,1c0,5.37,0,10.74,0,16.1a2.35,2.35,0,0,1-1.62,2.46,14.92,14.92,0,0,1-10.39,0,2.27,2.27,0,0,1-1.64-2.43c0-5.51,0-11,0-16.52a2.26,2.26,0,0,0-.51-1.36A187.6,187.6,0,0,1,19.85,33.7c-2-3-4-6.12-6-9.12a17.9,17.9,0,0,0-2-1.88A6.13,6.13,0,0,1,9.74,19.25Z" transform="translate(-9.73 -9.61)"/>
    <path fill="#FF7D46" d="M70.49,9.61V14c-.22,0-.43.07-.63.07q-29.55,0-59.1,0c-.81,0-1-.29-1-1,0-.92,0-1.85,0-2.77,0-.52.15-.67.65-.66,1.57,0,3.15,0,4.73,0H70.49Z" transform="translate(-9.73 -9.61)"/>
</svg>