<svg xmlns="http://www.w3.org/2000/svg" viewBox="0 0 363.29 400.76">
	<g fill="none"  stroke-width="18px" stroke-miterlimit="10">
		<path class="svg-fill" d="M299.29,332.19"/>
		<polygon class="svg-fill" points="98.29 400.76 271.29 400.76 221.65 205.19 149.44 205.19 98.29 400.76"/>
		<path class="svg-stroke" d="M231.9,183a71.79,71.79,0,0,0,2.65-104"/>
		<path class="svg-stroke" d="M135,77a71.79,71.79,0,0,0,1.56,106.72"/>
		<path class="svg-stroke" d="M265.34,218.43a121.15,121.15,0,0,0,4.47-175.58"/>
		<path class="svg-stroke" d="M101.81,39.65a121.15,121.15,0,0,0,2.63,180.1"/>
		<path class="svg-stroke" d="M297.35,257.34c35-31.09,56.94-76.06,56.94-126.09A168,168,0,0,0,303.73,11.14"/>
		<path class="svg-stroke" d="M64.3,6.65A168.19,168.19,0,0,0,9,131.26c0,51,22.86,96.79,59.05,127.93"/>
		<g stroke-width="9px" >
			<circle class="svg-stroke svg-fill" cx="183.91" cy="131.57" r="24.38"/>
		</g>
	</g>
</svg>