<svg width="98px" height="100px" viewBox="0 0 98 100" version="1.1" xmlns="http://www.w3.org/2000/svg" xmlns:xlink="http://www.w3.org/1999/xlink">
    <!-- Generator: Sketch 48.2 (47327) - http://www.bohemiancoding.com/sketch -->
    <g stroke="none" stroke-width="1" fill="none" fill-rule="evenodd" class="svg-stroke">
        <path d="M13.5,98.5 C19.1666667,98.1666667 23.3333333,97 26,95 C28.6666667,93 31,89.3333333 33,84 L91,84 C93.6666667,84 95.3333333,83.6666667 96,83 C96.6666667,82.3333333 97,80.6666667 97,78 L97,6 C97,3.33333333 96.6666667,1.66666667 96,1 C95.3222898,0.435606245 93.6556232,0.102272912 91,0 L5,0 C3.71325618,0.0553652787 2.71325618,0.388698612 2,1 C1.28674382,1.61130139 0.95341049,2.61130139 1,4 L1,78 C1,80.6666667 1.33333333,82.3333333 2,83 C2.66666667,83.6666667 4.33333333,84 7,84 L15,84 C16,85.3333333 16.6666667,87.1666667 17,89.5 C17.3333333,91.8333333 16.1666667,94.8333333 13.5,98.5 Z"></path>
        <circle cx="49" cy="63" r="6"></circle>
        <path d="M49,49 C52.3137085,49 55,40.9412943 55,31.0003771 C55,23.9126971 54.7348921,17.0612073 52.75,14.1257306 C51.950956,12.9440165 49.951099,13.0007542 49,13.0007542 C48.0434543,13.0007542 46.0524622,12.931289 45.25,14.1257306 C43.2725367,17.0691272 43,23.9290367 43,31.0003771 C43,40.9412943 45.6862915,49 49,49 Z"></path>
    </g>
</svg>