<svg width="502px" height="502px" viewBox="0 0 502 502" version="1.1" xmlns="http://www.w3.org/2000/svg" xmlns:xlink="http://www.w3.org/1999/xlink">
    <!-- Generator: Sketch 48.2 (47327) - http://www.bohemiancoding.com/sketch -->
    <g id="Page-1" stroke="none" stroke-width="16" fill="none" fill-rule="evenodd" transform="translate(1.000000, 1.000000)">
        <circle class="svg-stroke" cx="250" cy="250" r="250"></circle>
        <circle class="svg-stroke" cx="250" cy="250" r="125"></circle>
        <path d="M204,500 C224.482593,494.666667 240.482593,492 252,492 C263.517407,492 277.517407,494.666667 294,500 L350,387.04717 C320.007366,373.68239 287.526703,367 252.558011,367 C217.589319,367 183.736648,373.68239 151,387.04717 L204,500 Z" class="svg-fill" transform="translate(250.500000, 433.500000) scale(1, -1) translate(-250.500000, -433.500000) "></path>
        <path d="M204,133 C224.482593,127.666667 240.482593,125 252,125 C263.517407,125 277.517407,127.666667 294,133 L350,20.0471698 C320.007366,6.68238994 287.526703,0 252.558011,0 C217.589319,2.66474072e-15 183.736648,6.68238994 151,20.0471698 L204,133 Z" class="svg-fill"></path>
        <path d="M389.75,317.75 C408.544861,313.75 423.387402,311.75 434.277624,311.75 C445.167846,311.75 458.991971,313.75 475.75,317.75 L529.75,205.75 C499.166206,192.083333 467.342081,185.25 434.277624,185.25 C401.213168,185.25 369.370626,191.416667 338.75,203.75 L389.75,317.75 Z" class="svg-fill" transform="translate(434.250000, 251.500000) rotate(90.000000) translate(-434.250000, -251.500000) "></path>
        <path d="M21.75,317.75 C40.5448609,313.75 55.3874024,311.75 66.2776243,311.75 C77.1678462,311.75 90.9919715,313.75 107.75,317.75 L161.75,205.75 C131.166206,192.083333 99.342081,185.25 66.2776243,185.25 C33.2131676,185.25 1.37062615,191.416667 -29.25,203.75 L21.75,317.75 Z" class="svg-fill" transform="translate(66.250000, 251.500000) scale(-1, 1) rotate(90.000000) translate(-66.250000, -251.500000) "></path>
    </g>
</svg>