<svg width="670px" height="1057px" viewBox="0 0 670 1057" version="1.1" xmlns="http://www.w3.org/2000/svg" xmlns:xlink="http://www.w3.org/1999/xlink">
    <!-- Generator: Sketch 48.2 (47327) - http://www.bohemiancoding.com/sketch -->
    <g stroke="none" stroke-width="1" fill-rule="evenodd" class="svg-fill">
        <rect x="335" y="937" width="120" height="120" rx="2"></rect>
        <path d="M337.982196,857 L457.27003,857 C457.27003,783.666667 457.27003,739.666667 457.27003,725 C457.27003,703 529.836795,594 559.658754,548 C589.480712,502 670,375 670,270 C670,165 632.225519,111 589.480712,66 C546.735905,21 482.121662,-1.13686838e-13 347.922849,-1.13686838e-13 C213.724036,-9.30415541e-14 146.127596,7 76.5430267,66 C6.95845697,125 4.54747351e-13,229 4.54747351e-13,270 C4.56055832e-13,297.333333 4.56055832e-13,348.666667 4.54747351e-13,424 L116,424 C116,350.666667 116,299.333333 116,270 C116,226 137,174 169,145 C201,116 282,116 347.922849,116 C413.845697,116 464.228487,116 505,145 C545.771513,174 559.658754,190 559.658754,270 C559.658754,350 493.05638,434 453.293769,502 C413.531157,570 337.982196,678 337.982196,702 C337.982196,718 337.982196,769.666667 337.982196,857 Z"></path>
    </g>
</svg>