<svg width="22px" height="21px" viewBox="0 0 22 21" version="1.1" xmlns="http://www.w3.org/2000/svg" xmlns:xlink="http://www.w3.org/1999/xlink">
    <!-- Generator: Sketch 48.2 (47327) - http://www.bohemiancoding.com/sketch -->
    <path class="svg-fill" fill-rule="evenodd" stroke="none" stroke-width="1" d="M21.633175,19.0656205 L16.1574098,13.8614029 C17.1389485,12.5895674 17.664755,11.0519486 17.6574238,9.47490373 C17.6386954,5.35829331 14.1339938,2.02385219 9.80092209,2.00007562 C7.72730302,1.99116244 5.73605767,2.77050418 4.27077918,4.16448555 C2.80550069,5.55846693 1.98790713,7.4512924 2.00013522,9.42129398 C2.01886355,13.5382792 5.52388496,16.8730241 9.85735118,16.8968007 C11.5240955,16.9036636 13.1484911,16.3982971 14.4881086,15.4561234 L14.4938229,15.4520518 L19.9645881,20.6521978 C20.2603749,20.9470019 20.7011175,21.0663316 21.1160487,20.9639523 C21.5309799,20.8615731 21.8549019,20.5535716 21.9623101,20.159284 C22.0697184,19.7649963 21.9437359,19.3463767 21.633175,19.0656205 L21.633175,19.0656205 Z M9.85163685,15.4065853 C6.38505325,15.38764 3.58108171,12.7201296 3.56586407,9.42672281 C3.55650769,7.85092566 4.21063635,6.3369694 5.38263843,5.22186667 C6.55464052,4.10676393 8.14724151,3.48306669 9.80592213,3.48961241 C13.2725057,3.50855767 16.0764773,6.17606806 16.0916949,9.46947489 C16.1010513,11.0452721 15.4469226,12.5592283 14.2749205,13.674331 C13.1029185,14.7894338 11.5103175,15.413131 9.85163685,15.4065853 Z"></path>
</svg>