<?xml version="1.0" encoding="UTF-8"?>
<svg width="60px" height="60px" viewBox="0 0 381 384" version="1.1" xmlns="http://www.w3.org/2000/svg" xmlns:xlink="http://www.w3.org/1999/xlink">
    <!-- Generator: Sketch 46.2 (44496) - http://www.bohemiancoding.com/sketch -->
    <g fill-rule="nonzero" stroke="none" stroke-width="1" fill="none">
        <circle fill="#f26739" cx="190.5" cy="191.5" r="43.5"></circle>
        <g transform="translate(234.000000, 0.000000)" fill="#1d212c">
            <circle cx="111.9" cy="34.7" r="34.5"></circle>
            <circle cx="35.1" cy="114.1" r="34.5"></circle>
            <path d="M81.2,29.2 L107.4,59 C114,62 109.2,68 104.4,68.6 L101.7,68.9 C101.3,68.9 100.9,69 100.5,69.2 C89.4,73.2 75.7,82.2 73.1,95.3 L71.4,102.9 C70.4,107.1 69,122.4 65.9,119.4 L26.7,83.3 C23.6,80.2 40.3,76.9 44.6,76 L53.1,74.2 C53.1,74.2 61.3,72.8 67.4,67.2 C76.1,59.1 76.3,49.3 77,45.3 C77,45 77.1,44.8 77.1,44.5 L77.1,44.5 C77.1,40 77.7,26.2 81.2,29.2 Z"></path>
        </g>
        <g transform="translate(0.000000, 2.000000)" fill="#1d212c">
            <circle cx="35.4" cy="34.6" r="34.5"></circle>
            <circle cx="112.2" cy="114" r="34.5"></circle>
            <path d="M70.3,44.5 L70.3,44.5 C70.3,44.8 70.3,45 70.4,45.3 C71.1,49.3 71.2,59.1 80,67.2 C86,72.8 94.3,74.2 94.3,74.2 L102.8,76 C107.1,76.9 123.8,80.2 120.7,83.3 L81.5,119.4 C78.5,122.4 77,107.1 76,102.9 L74.3,95.3 C71.7,82.2 58,73.1 46.9,69.2 C46.5,69.1 46.1,69 45.7,68.9 L43,68.6 C38.3,68.1 33.4,62 40,59 L66.1,29.1 C69.6,26.1 70.2,39.9 70.3,44.5 Z"></path>
        </g>
        <g transform="translate(233.000000, 235.000000)" fill="#1d212c">
            <circle cx="35.1" cy="34.6" r="34.5"></circle>
            <circle cx="111.9" cy="114" r="34.5"></circle>
            <path d="M70,44.5 L70,44.5 C70,44.8 70,45 70.1,45.3 C70.8,49.3 70.9,59.1 79.7,67.2 C85.7,72.8 94,74.2 94,74.2 L102.5,76 C106.8,76.9 123.5,80.2 120.4,83.3 L81.2,119.4 C78.2,122.4 76.7,107.1 75.7,102.9 L74,95.3 C71.4,82.2 57.7,73.1 46.6,69.2 C46.2,69.1 45.8,69 45.4,68.9 L42.7,68.6 C38,68.1 33.1,62 39.7,59 L65.8,29.1 C69.3,26.1 69.9,39.9 70,44.5 Z"></path>
        </g>
        <g transform="translate(0.000000, 235.000000)" fill="#1d212c">
            <circle cx="112.2" cy="34.5" r="34.5"></circle>
            <circle cx="35.4" cy="113.9" r="34.5"></circle>
            <path d="M81.5,29 L107.6,58.9 C114.2,61.9 109.4,67.9 104.6,68.5 L101.9,68.8 C101.5,68.8 101.1,68.9 100.7,69.1 C89.6,73.1 75.9,82.1 73.3,95.2 L71.6,102.8 C70.6,107 69.2,122.3 66.1,119.3 L26.9,83.2 C23.8,80.1 40.5,76.8 44.8,75.9 L53.3,74.1 C53.3,74.1 61.5,72.7 67.6,67.1 C76.3,59 76.5,49.2 77.2,45.2 C77.2,44.9 77.3,44.7 77.3,44.4 L77.3,44.4 C77.4,39.8 78,26 81.5,29 Z"></path>
        </g>
    </g>
</svg>