<?xml version="1.0" encoding="UTF-8"?>
<svg width="706px" height="104px" viewBox="0 0 706 104" version="1.1" xmlns="http://www.w3.org/2000/svg" xmlns:xlink="http://www.w3.org/1999/xlink">
    <!-- Generator: Sketch 46.2 (44496) - http://www.bohemiancoding.com/sketch -->
    <g fill-rule="nonzero" stroke-width="1" stroke="none" fill="#003366">
        <path d="M702.1,14 C703,15.3 703.6,16.9 703.6,18.7 C703.6,23 700,26.5 695.6,26.5 C693.5,26.5 691.5,25.3 689.3,23.3 C684.7,18.9 677,15.4 668.6,15.4 C656.3,15.4 651.8,21.2 651.8,27.1 C651.8,46.4 705.6,37.4 705.6,74.3 C705.6,92.3 692.9,103.5 668.6,103.5 C651,103.5 637,94.8 631.3,85.5 C630.5,84.4 630.1,82.9 630.1,81.4 C630.1,77 633.6,73.4 637.9,73.4 C641.1,73.4 642.9,75.2 644.4,76.7 C650.6,82.9 658.4,87.9 668.6,87.9 C682,87.9 688.5,83.5 688.5,74.3 C688.5,52.8 634.7,62.7 634.7,27.1 C634.7,12.5 645.1,0.1 668.6,0.1 C683.3,0.1 696.2,5.6 702.1,14 Z"></path>
        <path d="M600,9.5 L600,69.1 C600,85.8 592.6,103.4 563,103.4 C533.4,103.4 526,85.8 526,69.1 L526,9.5 C526,5.2 529.2,1.6 533.5,1.1 C538.7,0.5 543,4.6 543,9.9 L543,69 C543,78 546.4,88.4 563,88.4 C579.6,88.4 583,78 583,69 L583,9.8 C583,5.3 586.4,1.3 590.8,1 C595.8,0.7 600,4.6 600,9.5 Z"></path>
        <path d="M484,9.7 L484,93.8 C484,98.6 480,102.5 475.1,102.3 C470.5,102.1 467,98.1 467,93.5 L467,10 C467,5.1 471,1 475.8,1.2 C480.4,1.5 484,5.2 484,9.7 Z"></path>
        <path d="M427,9.4 L427,94.3 C427,98.8 423.2,102.7 418.6,102.7 C415.8,102.7 413.1,101.2 411.7,99 L368,36 L368,94.2 C368,98.8 364.1,102.7 359.5,102.7 C354.9,102.7 351,98.8 351,94.2 L351,9.4 C351,5.2 354.5,1.2 358.7,0.9 C362.1,0.7 364.6,2 366.2,4.4 L410,67.8 L410,9.6 C410,5.9 412.2,2.6 415.7,1.4 C421.5,-0.5 427,3.9 427,9.4 Z"></path>
        <path d="M267.4,0.1 C297.2,0.1 314.2,16.9 314.2,51.9 C314.2,86.4 297.2,103.5 267.4,103.5 C237.6,103.5 220.6,86.4 220.6,51.9 C220.6,16.9 237.6,0.1 267.4,0.1 Z M296.5,51.9 C296.5,27.4 286.9,15.5 267.4,15.5 C247.9,15.5 238.3,27.4 238.3,51.9 C238.3,76.2 247.9,88.2 267.4,88.2 C286.9,88.2 296.5,76.2 296.5,51.9 Z"></path>
        <path d="M190.4,89.4 C191.3,90.6 191.8,92.2 191.8,94.1 C191.8,98.8 188,102.7 183.3,102.7 C180.3,102.7 178,101.3 176.2,98.8 L153.5,65.2 L130.8,98.8 C129,101.3 126.6,102.7 123.7,102.7 C119,102.7 115.1,98.8 115.1,94.1 C115.1,92.2 115.7,90.6 116.6,89.4 L144.2,50.7 L118.5,14.6 C117.5,13.1 116.9,11.5 116.9,9.5 C116.9,4.8 120.7,1 125.4,1 C128.4,1 130.8,2.2 132.4,4.5 L153.5,36 L174.6,4.5 C176.2,2.2 178.6,1 181.5,1 C186.2,1 190.1,4.8 190.1,9.5 C190.1,11.5 189.5,13.1 188.5,14.6 L162.8,50.7 L190.4,89.4 Z"></path>
        <path d="M86.5,91.5 C86.9,92.5 87.1,93.7 87.1,94.6 C87.1,99.1 83.3,103 78.7,103 C74.8,103 72,100.4 70.7,97.4 L61.7,76 L26,76 L17,97.4 C15.7,100.4 12.9,103 9,103 C4.5,103 0.6,99.1 0.6,94.6 C0.6,93.7 0.8,92.5 1.2,91.5 L36,6.6 C36.9,4.5 39.3,1.3 43.9,1.3 C48.4,1.3 50.8,4.5 51.7,6.6 L86.5,91.5 Z M56,60 L43.9,29 L31.8,60 L56,60 Z"></path>
    </g>
</svg>