<?xml version="1.0" encoding="UTF-8" standalone="no"?>
<!DOCTYPE svg PUBLIC "-//W3C//DTD SVG 1.1//EN" "http://www.w3.org/Graphics/SVG/1.1/DTD/svg11.dtd">


<!-- Page 1 -->
<svg x="0" y="0" width="389" height="389" viewBox="0 0 389 389" version="1.1" xmlns="http://www.w3.org/2000/svg"
     xmlns:xlink="http://www.w3.org/1999/xlink" style="display: block;margin-left: auto;margin-right: auto;">
<defs>

<style type="text/css"><![CDATA[

.g2_1{
fill: #4796e4;
}


]]></style>

</defs>
<path d="M122.7,158.9c7.9,-16.4,21.1,-29.6,37.4,-37.4l-79,-79C70.8,32.1,54,32.1,43.7,42.5c-10.3,10.3,-10.3,27,0,37.3Z" class="g2_1" />
<path d="M266.4,158.9l79,-79.1c10.3,-10.3,10.3,-27,0,-37.3C335.1,32.1,318.3,32.1,308,42.5l-79,79c16.3,7.8,29.5,21,37.4,37.4Z" class="g2_1" />
<path d="M122.7,227.7l-79,79.1c-10.3,10.3,-10.3,27,0,37.3c5.2,5.2,11.9,7.8,18.7,7.8c6.8,0,13.5,-2.6,18.7,-7.8l79,-79c-16.3,-7.8,-29.5,-21,-37.4,-37.4Z" class="g2_1" />
<path d="M266.4,227.7c-7.9,16.4,-21.1,29.6,-37.4,37.4l79,79c5.2,5.2,11.9,7.8,18.7,7.8c6.7,0,13.5,-2.6,18.7,-7.8c10.3,-10.3,10.3,-27,0,-37.3Z" class="g2_1" />
<path d="M236.5,195.7c0,-23.4,-18.9,-42.3,-42.3,-42.3c-23.4,0,-42.3,18.9,-42.3,42.3c0,23.4,18.9,42.3,42.3,42.3c23.4,0,42.3,-18.9,42.3,-42.3Z" class="g2_1" />
<path d="M385.6,16C385.6,8.4,379.4,2.3,371.9,2.3c-7.6,0,-13.8,6.1,-13.8,13.7c0,7.6,6.2,13.7,13.8,13.7c7.5,0,13.7,-6.1,13.7,-13.7Z" class="g2_1" />
<path d="M30.9,370.6c0,-7.6,-6.1,-13.7,-13.7,-13.7C9.6,356.9,3.5,363,3.5,370.6c0,7.6,6.1,13.7,13.7,13.7c7.6,0,13.7,-6.1,13.7,-13.7Z" class="g2_1" />
<path d="M385.6,370.6c0,-7.6,-6.2,-13.7,-13.8,-13.7c-7.5,0,-13.7,6.1,-13.7,13.7c0,7.6,6.2,13.7,13.7,13.7c7.6,0,13.8,-6.1,13.8,-13.7Z" class="g2_1" />
<path d="M30.9,16C30.9,8.4,24.8,2.3,17.2,2.3C9.6,2.3,3.5,8.4,3.5,16c0,7.6,6.1,13.7,13.7,13.7c7.6,0,13.7,-6.1,13.7,-13.7Z" class="g2_1" />

</svg>
