<svg width="283px" height="276px" viewBox="0 0 283 276" version="1.1" xmlns="http://www.w3.org/2000/svg" xmlns:xlink="http://www.w3.org/1999/xlink">
    <!-- Generator: Sketch 48.2 (47327) - http://www.bohemiancoding.com/sketch -->
    <g id="Page-1">
        <g class="svg-fill" stroke="none" stroke-width="1" fill-rule="evenodd">
            <path d="M120,276 C150.186402,276 177.769528,264.854046 198.858378,246.453136 C181.5,227.5 142,182 120,156 C120,132 120,53 120,36 C53.72583,36 0,89.72583 0,156 C0,222.27417 53.72583,276 120,276 Z"></path>
            <path d="M273,120 C273,96 273,17 273,0 C206.72583,0 153,53.72583 153,120 C209.858378,120 222.858378,120 273,120 Z" transform="translate(213.000000, 60.000000) scale(-1, 1) translate(-213.000000, -60.000000) "></path>
            <path d="M283,243.111408 C254,212.611408 217.5,175.611408 200.467171,156 C177.392109,177.869576 163,208.809764 163,243.111408 C219.858378,243.111408 232.858378,243.111408 283,243.111408 Z" transform="translate(223.000000, 199.555704) scale(-1, -1) translate(-223.000000, -199.555704) "></path>
        </g>
    </g>
</svg>